{
    "asset" : {
        "generator" : "Khronos glTF Blender I/O v1.7.33",
        "version" : "2.0"
    },
    "scene" : 0,
    "scenes" : [
        {
            "name" : "Scene",
            "nodes" : [
                0
            ]
        }
    ],
    "nodes" : [
        {
            "mesh" : 0,
            "name" : "architecture_model v18"
        }
    ],
    "meshes" : [
        {
            "name" : "architecture_model v18",
            "primitives" : [
                {
                    "attributes" : {
                        "POSITION" : 0,
                        "NORMAL" : 1
                    },
                    "indices" : 2
                }
            ]
        }
    ],
    "accessors" : [
        {
            "bufferView" : 0,
            "componentType" : 5126,
            "count" : 16632,
            "max" : [
                74.8653564453125,
                161.37185668945312,
                74.9970703125
            ],
            "min" : [
                -75,
                0,
                -74.9970703125
            ],
            "type" : "VEC3"
        },
        {
            "bufferView" : 1,
            "componentType" : 5126,
            "count" : 16632,
            "type" : "VEC3"
        },
        {
            "bufferView" : 2,
            "componentType" : 5123,
            "count" : 17022,
            "type" : "SCALAR"
        }
    ],
    "bufferViews" : [
        {
            "buffer" : 0,
            "byteLength" : 199584,
            "byteOffset" : 0
        },
        {
            "buffer" : 0,
            "byteLength" : 199584,
            "byteOffset" : 199584
        },
        {
            "buffer" : 0,
            "byteLength" : 34044,
            "byteOffset" : 399168
        }
    ],
    "buffers" : [
        {
            "byteLength" : 433212,
            "uri" : "data:application/octet-stream;base64,"
        }
    ]
}
